<svg width="25" height="25" viewBox="0 0 25 25" fill="none" xmlns="http://www.w3.org/2000/svg">
<g clip-path="url(#clip0)">
<path d="M9.04236 22.7451C9.62921 24.0719 10.9573 25.0004 12.4989 25.0004C14.0405 25.0004 15.3686 24.0719 15.9555 22.7451H9.04236Z" fill="#007BFF"/>
<path d="M12.498 2.38851C13.5153 2.38851 14.4921 2.568 15.3986 2.89662V2.78496C15.3986 1.24933 14.1492 0 12.6137 0H12.3829C10.8472 0 9.5979 1.24933 9.5979 2.78496V2.8952C10.5039 2.56756 11.4804 2.38851 12.498 2.38851Z" fill="#007BFF"/>
<path d="M21.6551 21.2772H3.34672C3.00035 21.2772 2.68308 21.0436 2.61104 20.7047C2.53973 20.3693 2.69262 20.0381 3.0028 19.8948C3.07641 19.8471 3.63044 19.4597 4.18512 18.2876C5.20384 16.1351 5.41767 13.103 5.41767 10.9384C5.41767 7.03282 8.59512 3.85547 12.5007 3.85547C16.397 3.85547 19.5686 7.01752 19.5836 10.9103C19.584 10.9197 19.5842 10.929 19.5842 10.9384C19.5842 13.103 19.798 16.1351 20.8167 18.2876C21.3714 19.4597 21.9254 19.8472 21.9991 19.8948C22.3092 20.0381 22.4622 20.3692 22.3908 20.7047C22.3188 21.0435 22.0015 21.2772 21.6551 21.2772ZM22.0073 19.9H22.0078H22.0073Z" fill="#007BFF"/>
</g>
<defs>
<clipPath id="clip0">
<rect width="25" height="25" fill="white"/>
</clipPath>
</defs>
</svg>
